<svg data-v-423bf9ae="" xmlns="http://www.w3.org/2000/svg" viewBox="0 0 134.3219200142563 179" class="iconAbove"><!----><!----><!----><g data-v-423bf9ae="" id="c837518a-eada-431e-903d-6a5445a2297d" fill="#3E2835" transform="matrix(5.743653863991078,0,0,5.743653863991078,-3.787257056376532,116.72881522698287)"><path d="M0.74 9.98L0.74 9.98C1.30 10.26 1.83 10.44 2.34 10.56C4.89 11.16 7.14 10.07 7.14 7.53C7.14 5.00 4.07 4.48 3.44 4.00C3.25 3.85 3.14 3.63 3.14 3.42C3.12 2.94 3.50 2.69 3.92 2.63C4.58 2.56 5.43 2.83 5.92 3.02C6.12 3.11 6.24 2.81 6.05 2.73C5.24 2.39 4.61 2.27 3.93 2.31C3.29 2.34 2.79 2.81 2.81 3.46C2.90 4.73 4.63 4.47 6.01 5.75C7.20 6.85 6.99 8.60 6.03 9.56C4.79 10.81 2.52 10.54 0.91 9.70C0.71 9.60 0.56 9.88 0.74 9.98ZM6.30 0.71L6.30 0.71C5.64 0.49 5.14 0.38 4.75 0.32C2.49 0.01 0.80 1.32 0.80 3.49C0.80 6.09 3.86 6.45 4.52 7C4.84 7.29 4.90 7.80 4.56 8.11C3.86 8.75 2.06 8.23 1.18 7.62C1.01 7.50 0.81 7.76 0.99 7.88C1.89 8.54 3.02 8.76 3.91 8.71C4.56 8.67 5.15 8.20 5.11 7.55C5.03 6.26 3.32 6.50 1.95 5.31C0.74 4.23 0.97 2.45 1.86 1.48C2.97 0.28 4.69 0.49 6.19 1.01C6.38 1.09 6.50 0.78 6.30 0.71ZM14.80 10.33L14.80 10.33L9.14 10.33L9.14 0.49C9.14 0.41 9.07 0.34 8.97 0.34C8.89 0.34 8.82 0.41 8.82 0.49L8.82 10.50C8.82 10.58 8.89 10.65 8.97 10.65L14.80 10.65C14.90 10.65 14.97 10.58 14.97 10.50C14.97 10.40 14.90 10.33 14.80 10.33ZM10.81 0.49L10.81 0.49L10.81 8.50C10.81 8.58 10.89 8.65 10.98 8.65L14.80 8.65C14.90 8.65 14.97 8.58 14.97 8.50C14.97 8.40 14.90 8.33 14.80 8.33L11.14 8.33L11.14 0.49C11.14 0.41 11.06 0.34 10.98 0.34C10.89 0.34 10.81 0.41 10.81 0.49ZM20.61 4.65L20.61 4.65C21.27 4.65 21.80 4.16 21.80 3.50C21.80 2.83 21.27 2.34 20.61 2.34L18.84 2.34C18.63 2.34 18.63 2.66 18.84 2.66L20.61 2.66C21.08 2.66 21.48 3.01 21.48 3.50C21.48 3.98 21.08 4.34 20.61 4.34L20.05 4.34C19.95 4.34 19.88 4.41 19.88 4.49C19.88 4.58 19.95 4.65 20.05 4.65ZM21.57 10.40L21.57 10.40L18.97 6.93C18.91 6.86 18.82 6.85 18.75 6.89C18.70 6.93 18.68 6.99 18.69 7.03L18.69 10.50C18.69 10.58 18.76 10.67 18.84 10.67C18.93 10.67 19.01 10.58 19.01 10.50L19.01 7.50L21.31 10.58C21.36 10.67 21.48 10.68 21.55 10.63C21.62 10.57 21.63 10.47 21.57 10.40ZM17.01 10.50L17.01 10.50L17.01 0.66L20.78 0.66C22.34 0.66 23.58 1.95 23.58 3.50C23.58 5.04 22.34 6.33 20.78 6.33C20.69 6.33 20.62 6.40 20.62 6.50C20.62 6.54 20.64 6.58 20.66 6.61L23.74 10.58C23.81 10.67 23.91 10.68 23.98 10.61C24.05 10.57 24.07 10.47 24.01 10.40L21.11 6.65C22.71 6.48 23.91 5.10 23.91 3.50C23.91 1.76 22.53 0.32 20.78 0.32L16.84 0.32C16.76 0.32 16.69 0.41 16.69 0.49L16.69 10.50C16.69 10.58 16.76 10.67 16.84 10.67C16.94 10.67 17.01 10.58 17.01 10.50Z"></path></g><defs data-v-423bf9ae=""><linearGradient data-v-423bf9ae="" gradientTransform="rotate(25)" id="034ffa87-1c69-4ab8-aaac-c1c65186d279" x1="0%" y1="0%" x2="100%" y2="0%"><stop data-v-423bf9ae="" offset="0%" style="stop-color: rgb(214, 65, 63); stop-opacity: 1;"></stop><stop data-v-423bf9ae="" offset="100%" style="stop-color: rgb(66, 133, 211); stop-opacity: 1;"></stop></linearGradient></defs><g data-v-423bf9ae="" id="edd92532-91ea-436f-a1b7-6b448e974067" transform="matrix(1.0817028469509549,0,0,1.0817028469509549,11.113287248592762,-0.7457059404583788)" stroke="none" fill="url(#034ffa87-1c69-4ab8-aaac-c1c65186d279)"><ellipse cx="62.318" cy="72.054" rx="4.314" ry="4.029"></ellipse><path d="M42.166 76.083c2.385 0 4.32-1.803 4.32-4.029 0-2.225-1.935-4.028-4.32-4.028-2.382 0-4.314 1.804-4.314 4.028 0 2.226 1.932 4.029 4.314 4.029z"></path><path d="M93.996 55.548L79.397 42.957c.247-4.733-.218-20.112-15.443-28.753l-9.77-12.193c-.943-1.179-2.941-1.179-3.885 0l-9.77 12.193c-15.226 8.642-15.69 24.02-15.443 28.753L10.488 55.548a2.488 2.488 0 0 0 1.625 4.374h8.771a28.485 28.485 0 0 0-1.166 8.045c0 16.824 14.59 30.513 32.523 30.513s32.522-13.688 32.522-30.513a28.49 28.49 0 0 0-1.165-8.045h8.771a2.489 2.489 0 0 0 1.627-4.374zm-14.21 12.419c0 14.08-12.355 25.534-27.544 25.534-15.188 0-27.544-11.454-27.544-25.534 0-2.743.476-5.442 1.413-8.045h52.264a23.628 23.628 0 0 1 1.411 8.045zm.275-13.024h-61.25l10.484-9.041a2.494 2.494 0 0 0 .837-2.252c-.025-.167-2.307-16.8 13.232-25.328.287-.157.541-.37.745-.625L52.24 7.549l8.131 10.148c.204.255.459.468.745.625 15.452 8.48 13.33 24.651 13.232 25.328a2.491 2.491 0 0 0 .838 2.252l10.484 9.041h-5.609z"></path><path d="M54.731 38.253V25.037a2.489 2.489 0 1 0-4.978 0v13.216l-6.042 6.207a2.489 2.489 0 0 0 3.566 3.473l4.965-5.1 4.965 5.1a2.48 2.48 0 0 0 1.783.752 2.489 2.489 0 0 0 1.783-4.225l-6.042-6.207z"></path></g><!----></svg>